<svg width="26" height="27" viewBox="0 0 26 27" fill="none" xmlns="http://www.w3.org/2000/svg">
<path d="M6.58442 26.4354L21.0701 18.3838C21.0701 18.3838 21.813 17.9042 23.8558 16.8352C26.726 15.4005 26.726 11.7263 23.801 10.1411C20.1795 8.17802 21.0701 8.62104 21.0701 8.62104L6.58442 0.569406C4.48669 -0.60115 1.80227 0.0938674 0.586688 2.11389C0.185714 2.78045 0 3.50799 0 4.22333C0 5.68246 0.789286 7.10501 2.1948 7.88944L12.2909 13.5024L2.1948 19.1113C0.785065 19.8958 0 21.3143 0 22.7774C0 23.4928 0.189935 24.2203 0.586688 24.8869C1.79805 26.9069 4.48247 27.6019 6.58442 26.4354Z" fill="white"/>
</svg>
