<svg width="26" height="27" viewBox="0 0 26 27" fill="none" xmlns="http://www.w3.org/2000/svg">
<path d="M6.58442 26.4353L21.0701 18.3837C21.0701 18.3837 21.813 17.9041 23.8558 16.8351C26.726 15.4004 26.726 11.7261 23.801 10.141C20.1795 8.17789 21.0701 8.62092 21.0701 8.62092L6.58442 0.569284C4.48669 -0.601272 1.80227 0.0937453 0.586688 2.11377C0.185714 2.78033 0 3.50787 0 4.22321C0 5.68233 0.789286 7.10489 2.1948 7.88932L12.2909 13.5023L2.1948 19.1112C0.785065 19.8956 0 21.3141 0 22.7773C0 23.4927 0.189935 24.2202 0.586688 24.8868C1.79805 26.9068 4.48247 27.6018 6.58442 26.4353Z" fill="white"/>
</svg>
