<svg width="26" height="27" viewBox="0 0 26 27" fill="none" xmlns="http://www.w3.org/2000/svg">
<path d="M19.4156 0.56469L4.92987 8.61633C4.92987 8.61633 4.18701 9.09593 2.14416 10.1649C-0.725974 11.5996 -0.725973 15.2739 2.19903 16.859C5.82046 18.8221 4.92987 18.3791 4.92987 18.3791L19.4156 26.4307C21.5133 27.6013 24.1977 26.9063 25.4133 24.8862C25.8143 24.2197 26 23.4921 26 22.7768C26 21.3177 25.2107 19.8951 23.8052 19.1107L13.7091 13.4977L23.8052 7.88879C25.2149 7.10436 26 5.68587 26 4.22268C26 3.50734 25.8101 2.77981 25.4133 2.11324C24.2019 0.0932183 21.5175 -0.601801 19.4156 0.56469V0.56469Z" fill="white"/>
</svg>
